<?xml version="1.0" encoding="utf-8"?>
<!-- Generator: Adobe Illustrator 24.0.0, SVG Export Plug-In . SVG Version: 6.00 Build 0)  -->
<svg version="1.1" id="Livello_1" xmlns="http://www.w3.org/2000/svg" xmlns:xlink="http://www.w3.org/1999/xlink" x="0px" y="0px"
	 viewBox="0 0 101 101" style="enable-background:new 0 0 101 101;" xml:space="preserve">
<style type="text/css">
	.st0{fill:#3F291A;}
	.st1{fill:#E8DECD;}
</style>
<g>
	<circle class="st0" cx="50.5" cy="50.5" r="50"/>
	<g>
		<g>
			<path class="st1" d="M13.88,49.29l0.5-0.76l-0.76-0.23l0.19-0.62l0.78,0.33l-0.05-0.82h0.76l-0.05,0.82l0.77-0.33l0.19,0.62
				l-0.75,0.23l0.5,0.76l-0.55,0.36l-0.48-0.8l-0.49,0.8L13.88,49.29z"/>
			<path class="st1" d="M18.98,47.27h1.3l2.88,7.56h-1.51l-0.7-1.88H18.3l-0.69,1.88H16.1L18.98,47.27z M20.67,51.91l-1.04-2.97
				l-1.09,2.97H20.67z"/>
			<path class="st1" d="M32.38,54.83v-5.01l-1.95,3.73h-0.8l-1.95-3.73v5.01h-1.47v-7.56h1.58l2.24,4.3l2.26-4.3h1.57v7.56H32.38z"
				/>
			<path class="st1" d="M38.65,54.88c-0.55,0-1.06-0.11-1.51-0.33c-0.45-0.22-0.84-0.5-1.16-0.86c-0.32-0.36-0.57-0.77-0.75-1.23
				c-0.18-0.46-0.27-0.93-0.27-1.42c0-0.5,0.09-0.99,0.28-1.45c0.19-0.46,0.45-0.87,0.78-1.22c0.33-0.36,0.72-0.64,1.18-0.85
				c0.45-0.21,0.95-0.31,1.48-0.31c0.55,0,1.05,0.11,1.5,0.34c0.45,0.22,0.84,0.52,1.16,0.88c0.32,0.36,0.57,0.77,0.75,1.24
				c0.18,0.46,0.27,0.93,0.27,1.41c0,0.5-0.09,0.99-0.28,1.44c-0.18,0.46-0.44,0.86-0.77,1.21c-0.33,0.35-0.72,0.63-1.17,0.84
				C39.68,54.78,39.18,54.88,38.65,54.88z M36.46,51.05c0,0.33,0.05,0.64,0.15,0.95c0.1,0.3,0.24,0.57,0.43,0.81
				c0.19,0.23,0.42,0.42,0.69,0.56c0.27,0.14,0.58,0.21,0.93,0.21c0.35,0,0.67-0.07,0.94-0.22c0.27-0.15,0.5-0.34,0.69-0.58
				c0.19-0.24,0.33-0.51,0.43-0.81c0.1-0.3,0.14-0.61,0.14-0.92c0-0.33-0.05-0.64-0.15-0.95c-0.1-0.3-0.25-0.57-0.44-0.81
				c-0.19-0.23-0.42-0.42-0.69-0.56c-0.27-0.14-0.58-0.21-0.92-0.21c-0.36,0-0.67,0.07-0.95,0.22c-0.28,0.15-0.51,0.34-0.69,0.57
				c-0.18,0.24-0.32,0.51-0.42,0.81C36.51,50.43,36.46,50.73,36.46,51.05z"/>
			<path class="st1" d="M43.48,54.83v-7.56h2.75c0.62,0,1.16,0.1,1.62,0.3c0.46,0.2,0.85,0.47,1.17,0.81
				c0.31,0.34,0.55,0.74,0.7,1.2c0.16,0.46,0.23,0.95,0.23,1.47c0,0.57-0.09,1.09-0.26,1.56c-0.17,0.47-0.42,0.86-0.75,1.19
				c-0.33,0.33-0.72,0.59-1.18,0.77c-0.46,0.18-0.97,0.27-1.54,0.27H43.48z M48.47,51.04c0-0.36-0.05-0.7-0.15-1
				c-0.1-0.31-0.25-0.57-0.44-0.79c-0.19-0.22-0.43-0.39-0.71-0.51c-0.28-0.12-0.6-0.18-0.95-0.18h-1.28v4.98h1.28
				c0.36,0,0.68-0.06,0.96-0.19c0.28-0.13,0.51-0.3,0.7-0.53c0.19-0.22,0.33-0.49,0.43-0.79C48.42,51.72,48.47,51.39,48.47,51.04z"
				/>
			<path class="st1" d="M54.33,54.88c-0.55,0-1.06-0.11-1.51-0.33c-0.45-0.22-0.84-0.5-1.16-0.86c-0.32-0.36-0.57-0.77-0.75-1.23
				c-0.18-0.46-0.27-0.93-0.27-1.42c0-0.5,0.09-0.99,0.28-1.45c0.19-0.46,0.45-0.87,0.78-1.22c0.33-0.36,0.72-0.64,1.18-0.85
				c0.45-0.21,0.95-0.31,1.48-0.31c0.55,0,1.05,0.11,1.5,0.34c0.45,0.22,0.84,0.52,1.16,0.88c0.32,0.36,0.57,0.77,0.75,1.24
				c0.18,0.46,0.27,0.93,0.27,1.41c0,0.5-0.09,0.99-0.28,1.44c-0.18,0.46-0.44,0.86-0.77,1.21c-0.33,0.35-0.72,0.63-1.17,0.84
				C55.35,54.78,54.86,54.88,54.33,54.88z M52.13,51.05c0,0.33,0.05,0.64,0.15,0.95c0.1,0.3,0.24,0.57,0.43,0.81
				c0.19,0.23,0.42,0.42,0.69,0.56c0.27,0.14,0.58,0.21,0.93,0.21c0.35,0,0.67-0.07,0.94-0.22c0.27-0.15,0.5-0.34,0.69-0.58
				c0.19-0.24,0.33-0.51,0.43-0.81c0.1-0.3,0.14-0.61,0.14-0.92c0-0.33-0.05-0.64-0.15-0.95c-0.1-0.3-0.25-0.57-0.44-0.81
				c-0.19-0.23-0.42-0.42-0.69-0.56c-0.27-0.14-0.58-0.21-0.92-0.21c-0.36,0-0.67,0.07-0.95,0.22c-0.28,0.15-0.51,0.34-0.69,0.57
				c-0.18,0.24-0.32,0.51-0.42,0.81C52.18,50.43,52.13,50.73,52.13,51.05z"/>
			<path class="st1" d="M67.87,54.83v-5.01l-1.95,3.73h-0.8l-1.95-3.73v5.01h-1.47v-7.56h1.58l2.24,4.3l2.26-4.3h1.57v7.56H67.87z"
				/>
			<path class="st1" d="M70.92,54.83v-7.56h1.47v7.56H70.92z"/>
			<path class="st1" d="M77.19,54.88c-0.55,0-1.06-0.11-1.51-0.33c-0.45-0.22-0.84-0.5-1.16-0.86c-0.32-0.36-0.57-0.77-0.75-1.23
				c-0.18-0.46-0.27-0.93-0.27-1.42c0-0.5,0.09-0.99,0.28-1.45c0.19-0.46,0.45-0.87,0.78-1.22c0.33-0.36,0.72-0.64,1.18-0.85
				c0.45-0.21,0.95-0.31,1.48-0.31c0.55,0,1.05,0.11,1.5,0.34c0.45,0.22,0.84,0.52,1.16,0.88c0.32,0.36,0.57,0.77,0.75,1.24
				c0.18,0.46,0.27,0.93,0.27,1.41c0,0.5-0.09,0.99-0.28,1.44c-0.18,0.46-0.44,0.86-0.77,1.21c-0.33,0.35-0.72,0.63-1.17,0.84
				C78.22,54.78,77.72,54.88,77.19,54.88z M75,51.05c0,0.33,0.05,0.64,0.15,0.95c0.1,0.3,0.24,0.57,0.43,0.81
				c0.19,0.23,0.42,0.42,0.69,0.56c0.27,0.14,0.58,0.21,0.93,0.21c0.35,0,0.67-0.07,0.94-0.22c0.27-0.15,0.5-0.34,0.69-0.58
				c0.19-0.24,0.33-0.51,0.43-0.81c0.1-0.3,0.14-0.61,0.14-0.92c0-0.33-0.05-0.64-0.15-0.95c-0.1-0.3-0.25-0.57-0.44-0.81
				c-0.19-0.23-0.42-0.42-0.69-0.56c-0.27-0.14-0.58-0.21-0.92-0.21c-0.36,0-0.67,0.07-0.95,0.22c-0.28,0.15-0.51,0.34-0.69,0.57
				c-0.18,0.24-0.32,0.51-0.42,0.81C75.05,50.43,75,50.73,75,51.05z"/>
			<path class="st1" d="M84.56,52.89c-0.43,0-0.83-0.07-1.19-0.22c-0.37-0.15-0.68-0.35-0.95-0.6c-0.27-0.26-0.48-0.56-0.62-0.91
				c-0.15-0.35-0.22-0.73-0.22-1.14c0-0.41,0.07-0.79,0.22-1.14c0.15-0.35,0.36-0.65,0.62-0.91c0.27-0.25,0.59-0.45,0.95-0.6
				c0.37-0.15,0.76-0.22,1.19-0.22c0.43,0,0.83,0.07,1.2,0.22c0.37,0.15,0.69,0.35,0.96,0.6c0.27,0.26,0.48,0.56,0.63,0.91
				c0.15,0.35,0.23,0.73,0.23,1.14c0,0.41-0.08,0.8-0.23,1.14c-0.15,0.35-0.36,0.65-0.63,0.91c-0.27,0.26-0.59,0.46-0.96,0.6
				C85.39,52.82,84.99,52.89,84.56,52.89z M84.56,52.5c0.36,0,0.7-0.06,1.01-0.18c0.31-0.12,0.58-0.29,0.82-0.51
				c0.23-0.22,0.41-0.48,0.54-0.78c0.13-0.3,0.2-0.64,0.2-1c0-0.35-0.07-0.68-0.19-0.98c-0.13-0.3-0.31-0.57-0.54-0.79
				c-0.23-0.22-0.5-0.4-0.81-0.53c-0.31-0.13-0.65-0.19-1.03-0.19c-0.37,0-0.71,0.06-1.02,0.19c-0.31,0.13-0.58,0.3-0.8,0.53
				c-0.23,0.22-0.4,0.48-0.53,0.78c-0.13,0.3-0.19,0.62-0.19,0.97c0,0.35,0.06,0.68,0.19,0.98c0.13,0.3,0.3,0.57,0.53,0.79
				c0.23,0.23,0.49,0.4,0.8,0.53C83.85,52.44,84.19,52.5,84.56,52.5z M83.27,48.26h1.55c0.16,0,0.31,0.03,0.45,0.1
				s0.26,0.16,0.35,0.27c0.1,0.11,0.18,0.24,0.23,0.37c0.06,0.14,0.08,0.28,0.08,0.42c0,0.22-0.06,0.42-0.17,0.61
				c-0.12,0.19-0.27,0.32-0.46,0.4l0.82,1.32h-0.85l-0.73-1.18h-0.51v1.18h-0.76V48.26z M84.76,49.93c0.13,0,0.24-0.04,0.31-0.13
				c0.08-0.09,0.12-0.21,0.12-0.37c0-0.17-0.04-0.3-0.13-0.38c-0.09-0.08-0.19-0.12-0.31-0.12h-0.72v1H84.76z"/>
		</g>
	</g>
</g>
</svg>
