<?xml version="1.0" encoding="utf-8"?>
<!-- Generator: Adobe Illustrator 24.0.0, SVG Export Plug-In . SVG Version: 6.00 Build 0)  -->
<svg version="1.1" id="Livello_1" xmlns="http://www.w3.org/2000/svg" xmlns:xlink="http://www.w3.org/1999/xlink" x="0px" y="0px"
	 viewBox="0 0 101 101" style="enable-background:new 0 0 101 101;" xml:space="preserve">
<style type="text/css">
	.st0{fill:#3F291A;}
	.st1{fill:#E8DECD;}
</style>
<g>
	<circle class="st0" cx="50.5" cy="50.5" r="50"/>
	<g>
		<g>
			<path class="st1" d="M18.03,48.3l0.5-0.76l-0.76-0.23l0.19-0.62l0.78,0.33l-0.05-0.82h0.76l-0.05,0.82l0.77-0.33l0.19,0.62
				l-0.74,0.23l0.5,0.76l-0.55,0.36l-0.48-0.8l-0.49,0.8L18.03,48.3z"/>
			<path class="st1" d="M21.23,50c0-0.46,0.08-0.92,0.25-1.37c0.17-0.45,0.41-0.85,0.73-1.21c0.32-0.36,0.71-0.64,1.17-0.86
				c0.46-0.22,0.99-0.33,1.58-0.33c0.7,0,1.3,0.15,1.81,0.46c0.51,0.3,0.89,0.7,1.13,1.19l-1.13,0.78c-0.1-0.21-0.22-0.39-0.36-0.54
				c-0.14-0.15-0.29-0.26-0.46-0.35c-0.16-0.08-0.33-0.15-0.51-0.19c-0.18-0.04-0.35-0.06-0.52-0.06c-0.37,0-0.69,0.07-0.96,0.22
				c-0.27,0.15-0.5,0.34-0.68,0.58c-0.18,0.24-0.32,0.51-0.41,0.81c-0.09,0.3-0.14,0.6-0.14,0.9c0,0.33,0.05,0.65,0.16,0.96
				c0.11,0.31,0.26,0.58,0.45,0.81c0.2,0.23,0.43,0.42,0.7,0.56c0.27,0.14,0.57,0.21,0.9,0.21c0.17,0,0.35-0.02,0.53-0.06
				c0.18-0.04,0.36-0.11,0.53-0.2c0.17-0.09,0.32-0.21,0.46-0.36c0.14-0.15,0.26-0.32,0.34-0.53l1.2,0.69
				c-0.12,0.28-0.29,0.53-0.52,0.75c-0.22,0.22-0.48,0.4-0.76,0.55c-0.28,0.15-0.58,0.26-0.9,0.34c-0.32,0.08-0.63,0.12-0.94,0.12
				c-0.54,0-1.03-0.11-1.48-0.34c-0.45-0.23-0.83-0.52-1.16-0.89c-0.32-0.37-0.58-0.78-0.76-1.25C21.32,50.96,21.23,50.48,21.23,50z
				"/>
			<path class="st1" d="M31.04,46.27h1.3l2.88,7.56H33.7L33,51.95h-2.64l-0.69,1.88h-1.51L31.04,46.27z M32.73,50.92l-1.04-2.97
				l-1.09,2.97H32.73z"/>
			<path class="st1" d="M36.04,53.83v-7.56h5.08v1.29h-3.61v1.95h3v1.19h-3v3.13H36.04z"/>
			<path class="st1" d="M42.16,53.83v-7.56h5.08v1.29h-3.61v1.95h3v1.19h-3v3.13H42.16z"/>
			<path class="st1" d="M48.27,53.83v-7.56h1.47v7.56H48.27z"/>
			<path class="st1" d="M56.97,47.56h-2.42v6.27h-1.46v-6.27h-2.42v-1.29h6.29V47.56z"/>
			<path class="st1" d="M59.31,46.27h1.3l2.88,7.56h-1.51l-0.7-1.88h-2.64l-0.69,1.88h-1.51L59.31,46.27z M61.01,50.92l-1.04-2.97
				l-1.09,2.97H61.01z"/>
			<path class="st1" d="M64.32,53.83v-7.56h1.47v6.27h3.85v1.29H64.32z"/>
			<path class="st1" d="M70.1,46.27l1.86,3.64l1.9-3.64h1.59l-2.75,4.92v2.64h-1.46v-2.66l-2.74-4.9H70.1z"/>
			<path class="st1" d="M78.82,51.9c-0.43,0-0.83-0.07-1.19-0.22c-0.37-0.15-0.68-0.35-0.95-0.6c-0.27-0.26-0.48-0.56-0.62-0.91
				c-0.15-0.35-0.22-0.73-0.22-1.14c0-0.41,0.07-0.79,0.22-1.14c0.15-0.35,0.36-0.65,0.62-0.91c0.27-0.25,0.59-0.45,0.95-0.6
				c0.37-0.15,0.76-0.22,1.19-0.22c0.43,0,0.83,0.07,1.2,0.22c0.37,0.15,0.69,0.35,0.96,0.6c0.27,0.26,0.48,0.56,0.63,0.91
				c0.15,0.35,0.23,0.73,0.23,1.14c0,0.41-0.08,0.8-0.23,1.14c-0.15,0.35-0.36,0.65-0.63,0.91c-0.27,0.26-0.59,0.46-0.96,0.6
				S79.25,51.9,78.82,51.9z M78.82,51.51c0.36,0,0.7-0.06,1.01-0.18c0.31-0.12,0.58-0.29,0.81-0.51c0.23-0.22,0.41-0.48,0.54-0.78
				c0.13-0.3,0.2-0.64,0.2-1c0-0.35-0.07-0.68-0.19-0.98c-0.13-0.3-0.31-0.57-0.54-0.79c-0.23-0.22-0.5-0.4-0.81-0.53
				s-0.66-0.19-1.03-0.19c-0.37,0-0.71,0.06-1.02,0.19c-0.31,0.13-0.58,0.3-0.8,0.53c-0.23,0.22-0.4,0.48-0.53,0.78
				c-0.13,0.3-0.19,0.62-0.19,0.97c0,0.35,0.06,0.68,0.19,0.98c0.13,0.3,0.3,0.57,0.53,0.79c0.23,0.23,0.49,0.4,0.8,0.53
				C78.11,51.45,78.45,51.51,78.82,51.51z M77.54,47.26h1.55c0.16,0,0.31,0.03,0.44,0.1s0.26,0.16,0.35,0.27
				c0.1,0.11,0.17,0.24,0.23,0.37c0.06,0.14,0.08,0.28,0.08,0.42c0,0.22-0.06,0.42-0.17,0.61c-0.12,0.19-0.27,0.32-0.46,0.4
				l0.82,1.32h-0.85l-0.73-1.18h-0.51v1.18h-0.76V47.26z M79.02,48.93c0.13,0,0.24-0.04,0.31-0.13c0.08-0.09,0.11-0.21,0.11-0.37
				c0-0.17-0.04-0.3-0.13-0.38c-0.09-0.08-0.19-0.12-0.31-0.12h-0.72v1H79.02z"/>
		</g>
	</g>
</g>
</svg>
