<svg id="Livello_1" data-name="Livello 1" xmlns="http://www.w3.org/2000/svg" viewBox="0 0 55.05 55.05"><defs><style>.cls-1{fill:none;stroke:#bca264;stroke-miterlimit:10;stroke-width:2px;}.cls-2{fill:#bca264;}</style></defs><title>icn-grani</title><rect x="1" y="1" width="53.05" height="53.05"/><rect class="cls-1" x="1" y="1" width="53.05" height="53.05"/><path class="cls-2" d="M451.37,566.56a5.06,5.06,0,0,1-2-1.78,9.59,9.59,0,0,1-1.54-6.4,11.09,11.09,0,0,1,3.7-7.88,5.53,5.53,0,0,1,3.66-1.46c.9,0,1,.05,1.07.94a10.32,10.32,0,0,1-1.53,6.85c-.37.62-.8,1.21-1.21,1.81A10.56,10.56,0,0,0,451.37,566.56Z" transform="translate(-416.95 -537.27)"/><path class="cls-2" d="M434.12,578.05a5.69,5.69,0,0,1-.61-3.86,11.8,11.8,0,0,1,9.47-9.37,5.84,5.84,0,0,1,4.16.85.82.82,0,0,1,.35,1.24,10.89,10.89,0,0,1-6,5.3A33.21,33.21,0,0,0,438,573.8,9,9,0,0,0,434.12,578.05Z" transform="translate(-416.95 -537.27)"/><path class="cls-2" d="M428.09,561a5.71,5.71,0,0,1,.95-3.5,11.3,11.3,0,0,1,7.58-5,9.15,9.15,0,0,1,6.46.76,5.31,5.31,0,0,1,2.08,2,.69.69,0,0,1-.16,1,10,10,0,0,1-6.05,2.43,25.54,25.54,0,0,1-2.94,0,10.6,10.6,0,0,0-7.67,2.17A1,1,0,0,1,428.09,561Z" transform="translate(-416.95 -537.27)"/><path class="cls-2" d="M457.22,549.54a5.2,5.2,0,0,1,2.22,2.06,10.46,10.46,0,0,1,1.1,8,10.25,10.25,0,0,1-3.93,6.39,5.58,5.58,0,0,1-3.34,1.09c-.64,0-.89-.27-1-.88a8.53,8.53,0,0,1,1.08-5.48c.47-.86,1-1.66,1.59-2.47a11.75,11.75,0,0,0,2.21-8.57S457.2,549.62,457.22,549.54Z" transform="translate(-416.95 -537.27)"/><path class="cls-2" d="M445.71,557a6.18,6.18,0,0,1-1.29,4.16,11.69,11.69,0,0,1-8.11,4.6,8.74,8.74,0,0,1-5.64-.92,5.23,5.23,0,0,1-2.12-2.16.62.62,0,0,1,.14-.87,7.52,7.52,0,0,1,4.45-2,21.39,21.39,0,0,1,3.57-.07,12,12,0,0,0,8.68-2.51A3.35,3.35,0,0,1,445.71,557Z" transform="translate(-416.95 -537.27)"/><path class="cls-2" d="M448.45,567.13a6,6,0,0,1,.44,4.92c-1.49,4.58-4.55,7.51-9.37,8.4a5.39,5.39,0,0,1-4.19-1,.78.78,0,0,1-.31-1.12,8,8,0,0,1,3.31-3.63,17.8,17.8,0,0,1,2.82-1.35A12.2,12.2,0,0,0,448.45,567.13Z" transform="translate(-416.95 -537.27)"/></svg>