<svg id="Livello_1" data-name="Livello 1" xmlns="http://www.w3.org/2000/svg" viewBox="0 0 55.05 55.05"><defs><style>.cls-1{fill:none;stroke:#bca264;stroke-miterlimit:10;stroke-width:2px;}.cls-2{fill:#bca264;}</style></defs><title>icon-macchine_01</title><rect x="1" y="1" width="53.05" height="53.05"/><rect class="cls-1" x="1" y="1" width="53.05" height="53.05"/><path class="cls-2" d="M452.55,658H439.33a1.69,1.69,0,0,0-1.58,2.29l.08.21,4.56,21h13.87v-19.8A3.71,3.71,0,0,0,452.55,658Z" transform="translate(-416.95 -642.27)"/><path class="cls-2" d="M452.55,654.77H439.33a4.9,4.9,0,0,0-3.52,1.48l-4.56-1.33a1.43,1.43,0,0,0-.8,2.75l4,1.17a4.9,4.9,0,0,0,.24,2.65l1.86,8.58h-.81c-.27,0-.82.16-1,.49l-.46,2a.49.49,0,0,0,.49.49c.27,0,.41-.22.49-.49l.23-1c.13-.33.35-.55.62-.55h.6l2.25,10.4h-7.61a2,2,0,0,0-2,2v1.37h30.11V661.75A7,7,0,0,0,452.55,654.77Zm4.24,27.31H442l-4.64-21.39-.07-.17a2.22,2.22,0,0,1,2.07-3h13.22a4.24,4.24,0,0,1,4.24,4.24Z" transform="translate(-416.95 -642.27)"/></svg>