<svg id="Livello_1" data-name="Livello 1" xmlns="http://www.w3.org/2000/svg" viewBox="0 0 55.05 55.05"><defs><style>.cls-1{fill:none;stroke:#bca264;stroke-miterlimit:10;stroke-width:2px;}.cls-2{fill:#bca264;}</style></defs><title>icn-accessori</title><rect x="1" y="1" width="53.05" height="53.05"/><rect class="cls-1" x="1" y="1" width="53.05" height="53.05"/><path class="cls-2" d="M457,772.29a3.46,3.46,0,0,0-1.51.36c0-.16,0-.29,0-.36,0-.84-5.79-1.52-12.92-1.52s-12.92.68-12.92,1.52c-.1,1.1-.35,8.31-.16,9.46a13.46,13.46,0,0,0,4.14,7.77,14.23,14.23,0,0,0,5.58,3.3h6.37a14.22,14.22,0,0,0,6.25-4,13.64,13.64,0,0,0,2.94-4.84,3.63,3.63,0,0,0,2.25.82c2.52,0,4.56-2.81,4.56-6.27S459.51,772.29,457,772.29Zm-14.44.87a57.38,57.38,0,0,1-11.65-.87,78.28,78.28,0,0,1,23.3,0A57.37,57.37,0,0,1,442.55,773.17ZM457,782.75a2.5,2.5,0,0,1-1.73-.75c.07-.38.12-.76.15-1.15,0-.54.09-3.6.09-5.93a2.42,2.42,0,0,1,1.49-.54c1.68,0,3,1.87,3,4.18S458.67,782.75,457,782.75Z" transform="translate(-416.95 -754.27)"/></svg>