<svg id="Livello_1" data-name="Livello 1" xmlns="http://www.w3.org/2000/svg" viewBox="0 0 55.05 55.05"><defs><style>.cls-1{fill:none;stroke:#bca264;stroke-miterlimit:10;stroke-width:2px;}.cls-2{fill:#bca264;}</style></defs><title>icn-cialde</title><rect x="1" y="1" width="53.05" height="53.05"/><rect class="cls-1" x="1" y="1" width="53.05" height="53.05"/><path class="cls-2" d="M444.48,231.52a10.72,10.72,0,1,0,10.72,10.72A10.74,10.74,0,0,0,444.48,231.52Z" transform="translate(-416.95 -213.38)"/><path class="cls-2" d="M454.31,233c.77-2.11,1.38-5.2-.95-6.47-2.79-1.51-5.57,1-6.77,2.38A13.51,13.51,0,1,0,458,242.24,13.46,13.46,0,0,0,454.31,233Zm-9.84,20.5a11.25,11.25,0,1,1,11.25-11.25A11.26,11.26,0,0,1,444.48,253.49Z" transform="translate(-416.95 -213.38)"/></svg>