<?xml version="1.0" encoding="utf-8"?>
<!-- Generator: Adobe Illustrator 24.0.0, SVG Export Plug-In . SVG Version: 6.00 Build 0)  -->
<svg version="1.1" id="Livello_1" xmlns="http://www.w3.org/2000/svg" xmlns:xlink="http://www.w3.org/1999/xlink" x="0px" y="0px"
	 viewBox="0 0 101 101" style="enable-background:new 0 0 101 101;" xml:space="preserve">
<style type="text/css">
	.st0{fill:#3F291A;}
	.st1{fill:#E8DECD;}
</style>
<g>
	<circle class="st0" cx="50.5" cy="50.5" r="50"/>
	<g>
		<g>
			<path class="st1" d="M25.09,41.91l0.5-0.76l-0.76-0.23l0.19-0.62l0.78,0.33l-0.05-0.82h0.76l-0.05,0.82l0.77-0.33l0.19,0.62
				l-0.75,0.23l0.5,0.76l-0.55,0.36l-0.48-0.8l-0.49,0.8L25.09,41.91z"/>
			<path class="st1" d="M28.75,47.44v-7.56h1.47v6.27h3.85v1.29H28.75z"/>
			<path class="st1" d="M37.12,39.88h1.3l2.88,7.56h-1.51l-0.7-1.88h-2.64l-0.69,1.88h-1.51L37.12,39.88z M38.82,44.53l-1.04-2.97
				l-1.09,2.97H38.82z"/>
			<path class="st1" d="M42.26,39.88l2.04,5.72l2.02-5.72h1.54l-2.95,7.56h-1.24l-2.97-7.56H42.26z"/>
			<path class="st1" d="M50.18,39.88h1.3l2.88,7.56h-1.51l-0.7-1.88H49.5l-0.69,1.88h-1.51L50.18,39.88z M51.87,44.53l-1.04-2.97
				l-1.09,2.97H51.87z"/>
			<path class="st1" d="M54.72,46.34l4.27-5.16h-4.15v-1.29h5.85v1.11l-4.13,5.16h4.16v1.29h-6V46.34z"/>
			<path class="st1" d="M61.39,46.34l4.27-5.16h-4.15v-1.29h5.85v1.11l-4.13,5.16h4.16v1.29h-6V46.34z"/>
			<path class="st1" d="M70.69,39.88h1.3l2.88,7.56h-1.51l-0.7-1.88h-2.64l-0.69,1.88h-1.51L70.69,39.88z M72.38,44.53l-1.04-2.97
				l-1.09,2.97H72.38z"/>
			<path class="st1" d="M39.28,58.27c0,0.32-0.06,0.6-0.19,0.84c-0.13,0.24-0.3,0.44-0.53,0.61c-0.22,0.16-0.48,0.29-0.78,0.37
				c-0.29,0.09-0.61,0.13-0.94,0.13h-3.65v-7.56h4.05c0.26,0,0.5,0.06,0.71,0.17c0.21,0.11,0.39,0.26,0.54,0.44
				c0.15,0.18,0.26,0.39,0.35,0.62c0.08,0.23,0.12,0.46,0.12,0.7c0,0.37-0.09,0.72-0.28,1.04c-0.18,0.32-0.45,0.56-0.81,0.72
				c0.43,0.13,0.77,0.36,1.03,0.69C39.15,57.36,39.28,57.78,39.28,58.27z M34.66,53.92v1.91h1.96c0.25,0,0.46-0.08,0.63-0.26
				c0.17-0.17,0.26-0.4,0.26-0.7c0-0.29-0.08-0.52-0.24-0.69c-0.16-0.17-0.36-0.26-0.59-0.26H34.66z M37.8,58
				c0-0.13-0.02-0.27-0.07-0.39c-0.05-0.12-0.11-0.23-0.19-0.32c-0.08-0.09-0.17-0.17-0.28-0.22c-0.11-0.05-0.22-0.08-0.35-0.08
				h-2.26v1.99h2.18c0.13,0,0.26-0.03,0.38-0.07c0.12-0.05,0.22-0.12,0.3-0.21c0.08-0.09,0.15-0.19,0.2-0.31
				C37.77,58.26,37.8,58.13,37.8,58z"/>
			<path class="st1" d="M40.43,60.22v-7.56h1.47v6.27h3.86v1.29H40.43z"/>
			<path class="st1" d="M49.38,58.98c0.35,0,0.64-0.07,0.88-0.21c0.24-0.14,0.43-0.33,0.58-0.55c0.14-0.23,0.25-0.49,0.31-0.78
				c0.06-0.29,0.09-0.6,0.09-0.91v-3.85h1.46v3.85c0,0.52-0.06,1.01-0.19,1.46c-0.12,0.45-0.32,0.85-0.59,1.19
				c-0.27,0.34-0.61,0.61-1.03,0.81c-0.42,0.2-0.92,0.3-1.5,0.3c-0.6,0-1.12-0.1-1.54-0.31c-0.42-0.21-0.77-0.49-1.03-0.83
				c-0.26-0.34-0.45-0.74-0.57-1.2c-0.12-0.45-0.18-0.93-0.18-1.42v-3.85h1.47v3.85c0,0.32,0.03,0.63,0.09,0.92s0.16,0.56,0.31,0.78
				c0.15,0.23,0.34,0.41,0.57,0.55C48.75,58.91,49.04,58.98,49.38,58.98z"/>
			<path class="st1" d="M59.42,58.94v1.29h-5.25v-7.56h5.15v1.29h-3.69v1.82h3.18v1.19h-3.18v1.97H59.42z"/>
			<path class="st1" d="M63.11,58.29c-0.43,0-0.83-0.07-1.19-0.22c-0.37-0.15-0.68-0.35-0.95-0.6c-0.27-0.26-0.48-0.56-0.62-0.91
				c-0.15-0.35-0.22-0.73-0.22-1.14c0-0.41,0.07-0.79,0.22-1.14c0.15-0.35,0.36-0.65,0.62-0.91c0.27-0.25,0.59-0.45,0.95-0.6
				c0.37-0.15,0.76-0.22,1.19-0.22c0.43,0,0.83,0.07,1.2,0.22c0.37,0.15,0.69,0.35,0.96,0.6c0.27,0.26,0.48,0.56,0.63,0.91
				c0.15,0.35,0.23,0.73,0.23,1.14c0,0.41-0.08,0.8-0.23,1.14c-0.15,0.35-0.36,0.65-0.63,0.91c-0.27,0.26-0.59,0.46-0.96,0.6
				S63.54,58.29,63.11,58.29z M63.11,57.9c0.36,0,0.7-0.06,1.01-0.18c0.31-0.12,0.58-0.29,0.81-0.51c0.23-0.22,0.41-0.48,0.54-0.78
				c0.13-0.3,0.2-0.64,0.2-1c0-0.35-0.07-0.68-0.19-0.98c-0.13-0.3-0.31-0.57-0.54-0.79c-0.23-0.22-0.5-0.4-0.81-0.53
				c-0.31-0.13-0.66-0.19-1.03-0.19c-0.37,0-0.71,0.06-1.02,0.19c-0.31,0.13-0.58,0.3-0.8,0.53c-0.23,0.22-0.4,0.48-0.53,0.78
				c-0.13,0.3-0.19,0.62-0.19,0.97c0,0.35,0.06,0.68,0.19,0.98c0.13,0.3,0.3,0.57,0.53,0.79c0.23,0.23,0.49,0.4,0.8,0.53
				C62.4,57.84,62.74,57.9,63.11,57.9z M61.83,53.65h1.55c0.16,0,0.31,0.03,0.44,0.1s0.26,0.16,0.35,0.27
				c0.1,0.11,0.17,0.24,0.23,0.37c0.06,0.14,0.08,0.28,0.08,0.42c0,0.22-0.06,0.42-0.17,0.61c-0.12,0.19-0.27,0.32-0.46,0.4
				l0.82,1.32h-0.85l-0.73-1.18h-0.51v1.18h-0.76V53.65z M63.31,55.32c0.13,0,0.24-0.04,0.31-0.13c0.08-0.09,0.11-0.21,0.11-0.37
				c0-0.17-0.04-0.3-0.13-0.38c-0.09-0.08-0.19-0.12-0.31-0.12h-0.72v1H63.31z"/>
		</g>
	</g>
</g>
</svg>
