<?xml version="1.0" encoding="utf-8"?>
<!-- Generator: Adobe Illustrator 24.0.0, SVG Export Plug-In . SVG Version: 6.00 Build 0)  -->
<svg version="1.1" id="Livello_1" xmlns="http://www.w3.org/2000/svg" xmlns:xlink="http://www.w3.org/1999/xlink" x="0px" y="0px"
	 viewBox="0 0 101 101" style="enable-background:new 0 0 101 101;" xml:space="preserve">
<style type="text/css">
	.st0{fill:#3F291A;}
	.st1{fill:#E8DECD;}
</style>
<g>
	<circle class="st0" cx="50.5" cy="50.5" r="50"/>
	<g>
		<g>
			<path class="st1" d="M25.58,42.25l0.5-0.76l-0.76-0.23l0.19-0.62l0.78,0.33l-0.05-0.82H27l-0.05,0.82l0.77-0.33l0.19,0.62
				l-0.75,0.23l0.5,0.76l-0.55,0.36l-0.48-0.8l-0.49,0.8L25.58,42.25z"/>
			<path class="st1" d="M30.71,42.94v4.85h-1.47v-7.56h1.14l3.94,4.96v-4.95h1.47v7.55H34.6L30.71,42.94z"/>
			<path class="st1" d="M42.62,46.5v1.29h-5.25v-7.56h5.15v1.29h-3.69v1.82h3.18v1.19h-3.18v1.97H42.62z"/>
			<path class="st1" d="M48.11,42.21c-0.05-0.05-0.14-0.12-0.27-0.2c-0.13-0.09-0.29-0.17-0.48-0.25c-0.19-0.08-0.39-0.15-0.61-0.21
				c-0.22-0.06-0.44-0.09-0.67-0.09c-0.4,0-0.71,0.07-0.9,0.22c-0.2,0.15-0.3,0.36-0.3,0.63c0,0.16,0.04,0.29,0.11,0.39
				c0.07,0.1,0.18,0.19,0.32,0.27c0.14,0.08,0.32,0.15,0.54,0.21c0.22,0.06,0.47,0.13,0.75,0.2c0.37,0.1,0.7,0.21,1.01,0.32
				c0.3,0.11,0.56,0.26,0.77,0.43c0.21,0.17,0.37,0.37,0.48,0.61c0.11,0.24,0.17,0.53,0.17,0.88c0,0.4-0.08,0.75-0.23,1.04
				c-0.15,0.29-0.36,0.52-0.62,0.7c-0.26,0.18-0.56,0.31-0.89,0.39c-0.34,0.08-0.69,0.12-1.06,0.12c-0.57,0-1.13-0.09-1.68-0.26
				c-0.55-0.17-1.05-0.41-1.49-0.72l0.65-1.27c0.06,0.06,0.18,0.15,0.35,0.25c0.17,0.1,0.36,0.21,0.59,0.31
				c0.23,0.1,0.48,0.19,0.76,0.26c0.28,0.07,0.56,0.11,0.85,0.11c0.81,0,1.21-0.26,1.21-0.78c0-0.16-0.05-0.3-0.14-0.42
				c-0.09-0.11-0.22-0.21-0.39-0.3c-0.17-0.08-0.38-0.16-0.62-0.23c-0.24-0.07-0.51-0.15-0.81-0.23c-0.36-0.1-0.68-0.21-0.94-0.33
				c-0.27-0.12-0.49-0.26-0.67-0.42c-0.18-0.16-0.31-0.34-0.4-0.55c-0.09-0.21-0.13-0.46-0.13-0.75c0-0.38,0.07-0.72,0.21-1.02
				c0.14-0.3,0.34-0.55,0.59-0.75c0.25-0.2,0.54-0.35,0.88-0.45c0.33-0.1,0.69-0.15,1.08-0.15c0.53,0,1.02,0.08,1.47,0.25
				c0.45,0.17,0.84,0.36,1.17,0.59L48.11,42.21z"/>
			<path class="st1" d="M49.68,43.95c0-0.46,0.08-0.92,0.25-1.37c0.17-0.45,0.41-0.85,0.73-1.21c0.32-0.36,0.71-0.64,1.17-0.86
				c0.46-0.22,0.99-0.33,1.58-0.33c0.7,0,1.3,0.15,1.81,0.46c0.51,0.3,0.89,0.7,1.13,1.19l-1.13,0.78c-0.1-0.21-0.22-0.39-0.36-0.54
				c-0.14-0.15-0.29-0.26-0.46-0.35c-0.16-0.08-0.33-0.15-0.51-0.19c-0.18-0.04-0.35-0.06-0.52-0.06c-0.37,0-0.69,0.07-0.96,0.22
				c-0.27,0.15-0.5,0.34-0.68,0.58c-0.18,0.24-0.32,0.51-0.41,0.81c-0.09,0.3-0.14,0.6-0.14,0.9c0,0.33,0.05,0.65,0.16,0.96
				c0.11,0.31,0.26,0.58,0.45,0.81s0.43,0.42,0.7,0.56c0.27,0.14,0.57,0.21,0.9,0.21c0.17,0,0.35-0.02,0.53-0.06
				c0.18-0.04,0.36-0.11,0.53-0.2c0.17-0.09,0.32-0.21,0.46-0.36c0.14-0.15,0.26-0.32,0.34-0.53l1.2,0.69
				c-0.12,0.28-0.29,0.53-0.52,0.75s-0.48,0.4-0.76,0.55c-0.28,0.15-0.58,0.26-0.9,0.34c-0.32,0.08-0.63,0.12-0.94,0.12
				c-0.54,0-1.03-0.11-1.48-0.34c-0.45-0.23-0.83-0.52-1.16-0.89c-0.32-0.37-0.58-0.78-0.76-1.25
				C49.77,44.91,49.68,44.44,49.68,43.95z"/>
			<path class="st1" d="M59.49,40.23h1.3l2.88,7.56h-1.51l-0.7-1.88h-2.64l-0.69,1.88H56.6L59.49,40.23z M61.18,44.87l-1.04-2.97
				l-1.09,2.97H61.18z"/>
			<path class="st1" d="M64.49,47.79v-7.56h5.08v1.29h-3.61v1.95h3v1.19h-3v3.13H64.49z"/>
			<path class="st1" d="M75.86,46.5v1.29h-5.25v-7.56h5.15v1.29h-3.69v1.82h3.18v1.19h-3.18v1.97H75.86z M71.93,38.03h1.32
				l0.59,1.27l-0.92,0.28L71.93,38.03z"/>
			<path class="st1" d="M10.87,60.57v-7.56h2.75c0.62,0,1.16,0.1,1.62,0.3c0.46,0.2,0.85,0.47,1.17,0.81
				c0.31,0.34,0.55,0.74,0.7,1.2c0.16,0.46,0.23,0.95,0.23,1.47c0,0.57-0.09,1.09-0.26,1.56c-0.17,0.47-0.42,0.86-0.75,1.19
				c-0.33,0.33-0.72,0.59-1.18,0.77c-0.46,0.18-0.97,0.27-1.54,0.27H10.87z M15.86,56.78c0-0.36-0.05-0.7-0.15-1
				c-0.1-0.31-0.25-0.57-0.44-0.79c-0.19-0.22-0.43-0.39-0.71-0.51c-0.28-0.12-0.6-0.18-0.95-0.18h-1.28v4.98h1.28
				c0.36,0,0.68-0.06,0.96-0.19c0.28-0.13,0.51-0.3,0.7-0.53c0.19-0.22,0.33-0.49,0.43-0.79C15.81,57.46,15.86,57.13,15.86,56.78z"
				/>
			<path class="st1" d="M21.72,60.62c-0.55,0-1.06-0.11-1.51-0.33c-0.45-0.22-0.84-0.5-1.16-0.86c-0.32-0.36-0.57-0.77-0.75-1.23
				c-0.18-0.46-0.27-0.93-0.27-1.42c0-0.5,0.09-0.99,0.28-1.45c0.19-0.46,0.45-0.87,0.78-1.22c0.33-0.36,0.72-0.64,1.18-0.85
				c0.45-0.21,0.95-0.31,1.48-0.31c0.55,0,1.05,0.11,1.5,0.34c0.45,0.22,0.84,0.52,1.16,0.88c0.32,0.36,0.57,0.77,0.75,1.24
				c0.18,0.46,0.27,0.93,0.27,1.41c0,0.5-0.09,0.99-0.28,1.44c-0.18,0.46-0.44,0.86-0.77,1.21c-0.33,0.35-0.72,0.63-1.17,0.84
				C22.74,60.52,22.25,60.62,21.72,60.62z M19.52,56.79c0,0.33,0.05,0.64,0.15,0.95c0.1,0.3,0.24,0.57,0.43,0.81
				c0.19,0.23,0.42,0.42,0.69,0.56c0.27,0.14,0.58,0.21,0.93,0.21c0.35,0,0.67-0.07,0.94-0.22s0.5-0.34,0.69-0.58
				c0.19-0.24,0.33-0.51,0.43-0.81c0.1-0.3,0.14-0.61,0.14-0.92c0-0.33-0.05-0.64-0.15-0.95c-0.1-0.3-0.25-0.57-0.44-0.81
				c-0.19-0.23-0.42-0.42-0.69-0.56c-0.27-0.14-0.58-0.21-0.92-0.21c-0.36,0-0.67,0.07-0.95,0.22c-0.28,0.15-0.51,0.34-0.69,0.57
				c-0.18,0.24-0.32,0.51-0.42,0.81C19.57,56.17,19.52,56.47,19.52,56.79z"/>
			<path class="st1" d="M26.54,60.57v-7.56h1.47v6.27h3.86v1.29H26.54z"/>
			<path class="st1" d="M31.82,56.73c0-0.46,0.08-0.92,0.25-1.37c0.17-0.45,0.41-0.85,0.73-1.21c0.32-0.36,0.71-0.64,1.17-0.86
				c0.46-0.22,0.99-0.33,1.58-0.33c0.7,0,1.3,0.15,1.81,0.46c0.51,0.3,0.89,0.7,1.13,1.19l-1.13,0.78c-0.1-0.21-0.22-0.39-0.36-0.54
				c-0.14-0.15-0.29-0.26-0.46-0.35c-0.16-0.08-0.33-0.15-0.51-0.19c-0.18-0.04-0.35-0.06-0.52-0.06c-0.37,0-0.69,0.07-0.96,0.22
				c-0.27,0.15-0.5,0.34-0.68,0.58c-0.18,0.24-0.32,0.51-0.41,0.81c-0.09,0.3-0.14,0.6-0.14,0.9c0,0.33,0.05,0.65,0.16,0.96
				c0.11,0.31,0.26,0.58,0.45,0.81c0.2,0.23,0.43,0.42,0.7,0.56c0.27,0.14,0.57,0.21,0.9,0.21c0.17,0,0.35-0.02,0.53-0.06
				c0.18-0.04,0.36-0.11,0.53-0.2c0.17-0.09,0.32-0.21,0.46-0.36c0.14-0.15,0.26-0.32,0.34-0.53l1.2,0.69
				c-0.12,0.28-0.29,0.53-0.52,0.75c-0.22,0.22-0.48,0.4-0.76,0.55c-0.28,0.15-0.58,0.26-0.9,0.34c-0.32,0.08-0.63,0.12-0.94,0.12
				c-0.54,0-1.03-0.11-1.48-0.34c-0.45-0.23-0.83-0.52-1.16-0.89c-0.32-0.37-0.58-0.78-0.76-1.25
				C31.92,57.69,31.82,57.22,31.82,56.73z"/>
			<path class="st1" d="M44.84,59.28v1.29h-5.25v-7.56h5.15v1.29h-3.69v1.82h3.18v1.19h-3.18v1.97H44.84z"/>
			<path class="st1" d="M53.79,59.72c-0.6,0.6-1.31,0.9-2.11,0.9c-0.5,0-0.96-0.1-1.4-0.3c-0.44-0.2-0.82-0.47-1.14-0.82
				c-0.32-0.35-0.58-0.76-0.77-1.23c-0.19-0.47-0.28-0.98-0.28-1.53c0-0.52,0.09-1.01,0.28-1.46c0.19-0.46,0.45-0.86,0.78-1.2
				c0.33-0.34,0.72-0.62,1.17-0.82c0.45-0.2,0.93-0.3,1.46-0.3c0.71,0,1.32,0.15,1.83,0.45c0.51,0.3,0.89,0.7,1.14,1.2l-1.1,0.81
				c-0.19-0.38-0.46-0.66-0.8-0.86c-0.34-0.2-0.72-0.3-1.12-0.3c-0.32,0-0.61,0.07-0.88,0.2c-0.27,0.13-0.49,0.32-0.68,0.55
				c-0.19,0.23-0.33,0.5-0.44,0.81c-0.1,0.31-0.15,0.63-0.15,0.97c0,0.35,0.06,0.69,0.17,1c0.11,0.31,0.27,0.58,0.47,0.8
				c0.2,0.23,0.44,0.41,0.71,0.54c0.27,0.13,0.57,0.2,0.89,0.2c0.73,0,1.39-0.34,1.98-1.03v-0.53h-1.52v-1.08h2.74v3.89h-1.21V59.72
				z"/>
			<path class="st1" d="M59.46,59.32c0.35,0,0.64-0.07,0.88-0.21c0.24-0.14,0.43-0.33,0.58-0.55c0.15-0.23,0.25-0.49,0.31-0.78
				c0.06-0.29,0.09-0.6,0.09-0.91v-3.85h1.46v3.85c0,0.52-0.06,1.01-0.19,1.46c-0.12,0.45-0.32,0.85-0.59,1.19
				c-0.27,0.34-0.61,0.61-1.03,0.81c-0.42,0.2-0.92,0.3-1.5,0.3c-0.6,0-1.12-0.1-1.54-0.31c-0.42-0.21-0.77-0.49-1.03-0.83
				c-0.26-0.34-0.45-0.74-0.57-1.2c-0.12-0.45-0.18-0.93-0.18-1.42v-3.85h1.47v3.85c0,0.32,0.03,0.63,0.09,0.92
				c0.06,0.29,0.16,0.56,0.31,0.78c0.15,0.23,0.34,0.41,0.57,0.55C58.83,59.25,59.12,59.32,59.46,59.32z"/>
			<path class="st1" d="M68.76,54.99c-0.05-0.05-0.14-0.12-0.27-0.2c-0.13-0.09-0.29-0.17-0.48-0.25c-0.19-0.08-0.39-0.15-0.61-0.21
				c-0.22-0.06-0.44-0.09-0.67-0.09c-0.4,0-0.71,0.07-0.9,0.22c-0.2,0.15-0.3,0.36-0.3,0.63c0,0.16,0.04,0.29,0.11,0.39
				c0.07,0.1,0.18,0.19,0.32,0.27c0.14,0.08,0.32,0.15,0.54,0.21c0.22,0.06,0.47,0.13,0.75,0.2c0.37,0.1,0.7,0.21,1.01,0.32
				c0.3,0.11,0.56,0.26,0.77,0.43c0.21,0.17,0.37,0.37,0.48,0.61c0.11,0.24,0.17,0.53,0.17,0.88c0,0.4-0.08,0.75-0.23,1.04
				c-0.15,0.29-0.36,0.52-0.62,0.7c-0.26,0.18-0.56,0.31-0.89,0.39c-0.34,0.08-0.69,0.12-1.06,0.12c-0.57,0-1.13-0.09-1.68-0.26
				c-0.55-0.17-1.05-0.41-1.49-0.72l0.65-1.27c0.06,0.06,0.18,0.15,0.35,0.25c0.17,0.1,0.36,0.21,0.59,0.31s0.48,0.19,0.76,0.26
				c0.28,0.07,0.56,0.11,0.85,0.11c0.81,0,1.21-0.26,1.21-0.78c0-0.16-0.05-0.3-0.14-0.42c-0.09-0.11-0.22-0.21-0.39-0.3
				c-0.17-0.08-0.38-0.16-0.62-0.23c-0.24-0.07-0.51-0.15-0.81-0.23c-0.36-0.1-0.68-0.21-0.94-0.33c-0.27-0.12-0.49-0.26-0.67-0.42
				c-0.18-0.16-0.31-0.34-0.4-0.55c-0.09-0.21-0.13-0.46-0.13-0.75c0-0.38,0.07-0.72,0.21-1.02c0.14-0.3,0.34-0.55,0.59-0.75
				c0.25-0.2,0.54-0.35,0.88-0.45c0.33-0.1,0.69-0.15,1.08-0.15c0.53,0,1.02,0.08,1.47,0.25s0.84,0.36,1.17,0.59L68.76,54.99z"/>
			<path class="st1" d="M76.38,54.29h-2.42v6.27h-1.46v-6.27h-2.42v-1.29h6.29V54.29z"/>
			<path class="st1" d="M80.2,60.62c-0.55,0-1.06-0.11-1.51-0.33c-0.45-0.22-0.84-0.5-1.16-0.86c-0.32-0.36-0.57-0.77-0.75-1.23
				c-0.18-0.46-0.27-0.93-0.27-1.42c0-0.5,0.09-0.99,0.28-1.45c0.19-0.46,0.45-0.87,0.78-1.22c0.33-0.36,0.72-0.64,1.18-0.85
				c0.45-0.21,0.95-0.31,1.48-0.31c0.55,0,1.05,0.11,1.5,0.34c0.45,0.22,0.84,0.52,1.16,0.88c0.32,0.36,0.57,0.77,0.75,1.24
				c0.18,0.46,0.27,0.93,0.27,1.41c0,0.5-0.09,0.99-0.28,1.44c-0.18,0.46-0.44,0.86-0.77,1.21c-0.33,0.35-0.72,0.63-1.17,0.84
				C81.22,60.52,80.73,60.62,80.2,60.62z M78,56.79c0,0.33,0.05,0.64,0.15,0.95c0.1,0.3,0.24,0.57,0.43,0.81
				c0.19,0.23,0.42,0.42,0.69,0.56c0.27,0.14,0.58,0.21,0.93,0.21c0.35,0,0.67-0.07,0.94-0.22s0.5-0.34,0.69-0.58
				c0.19-0.24,0.33-0.51,0.43-0.81c0.1-0.3,0.14-0.61,0.14-0.92c0-0.33-0.05-0.64-0.15-0.95c-0.1-0.3-0.25-0.57-0.44-0.81
				c-0.19-0.23-0.42-0.42-0.69-0.56c-0.27-0.14-0.58-0.21-0.92-0.21c-0.36,0-0.67,0.07-0.95,0.22c-0.28,0.15-0.51,0.34-0.69,0.57
				c-0.18,0.24-0.32,0.51-0.42,0.81C78.05,56.17,78,56.47,78,56.79z"/>
			<path class="st1" d="M87.57,58.63c-0.43,0-0.83-0.07-1.19-0.22c-0.37-0.15-0.68-0.35-0.95-0.6c-0.27-0.26-0.48-0.56-0.62-0.91
				c-0.15-0.35-0.22-0.73-0.22-1.14c0-0.41,0.07-0.79,0.22-1.14c0.15-0.35,0.36-0.65,0.62-0.91c0.27-0.25,0.59-0.45,0.95-0.6
				c0.37-0.15,0.76-0.22,1.19-0.22c0.43,0,0.83,0.07,1.2,0.22c0.37,0.15,0.69,0.35,0.96,0.6c0.27,0.26,0.48,0.56,0.63,0.91
				c0.15,0.35,0.23,0.73,0.23,1.14c0,0.41-0.08,0.8-0.23,1.14c-0.15,0.35-0.36,0.65-0.63,0.91c-0.27,0.26-0.59,0.46-0.96,0.6
				C88.39,58.56,87.99,58.63,87.57,58.63z M87.57,58.24c0.36,0,0.7-0.06,1.01-0.18c0.31-0.12,0.58-0.29,0.82-0.51
				c0.23-0.22,0.41-0.48,0.54-0.78s0.2-0.64,0.2-1c0-0.35-0.07-0.68-0.19-0.98c-0.13-0.3-0.31-0.57-0.54-0.79
				c-0.23-0.22-0.5-0.4-0.81-0.53c-0.31-0.13-0.65-0.19-1.03-0.19c-0.37,0-0.71,0.06-1.02,0.19s-0.58,0.3-0.8,0.53
				c-0.23,0.22-0.4,0.48-0.53,0.78c-0.13,0.3-0.19,0.62-0.19,0.97c0,0.35,0.06,0.68,0.19,0.98c0.13,0.3,0.3,0.57,0.53,0.79
				c0.23,0.23,0.49,0.4,0.8,0.53C86.85,58.18,87.19,58.24,87.57,58.24z M86.28,54h1.55c0.16,0,0.31,0.03,0.45,0.1
				c0.14,0.07,0.26,0.16,0.35,0.27c0.1,0.11,0.18,0.24,0.23,0.37c0.06,0.14,0.08,0.28,0.08,0.42c0,0.22-0.06,0.42-0.17,0.61
				c-0.12,0.19-0.27,0.32-0.46,0.4l0.82,1.32h-0.85l-0.73-1.18h-0.51v1.18h-0.76V54z M87.76,55.67c0.13,0,0.24-0.04,0.31-0.13
				c0.08-0.09,0.12-0.21,0.12-0.37c0-0.17-0.04-0.3-0.13-0.38c-0.09-0.08-0.19-0.12-0.31-0.12h-0.72v1H87.76z"/>
		</g>
	</g>
</g>
</svg>
