<?xml version="1.0" encoding="utf-8"?>
<!-- Generator: Adobe Illustrator 24.0.0, SVG Export Plug-In . SVG Version: 6.00 Build 0)  -->
<svg version="1.1" id="Livello_1" xmlns="http://www.w3.org/2000/svg" xmlns:xlink="http://www.w3.org/1999/xlink" x="0px" y="0px"
	 viewBox="0 0 101 101" style="enable-background:new 0 0 101 101;" xml:space="preserve">
<style type="text/css">
	.st0{fill:#3F291A;}
	.st1{fill:#E8DECD;}
</style>
<g>
	<circle class="st0" cx="50.5" cy="50.5" r="50"/>
	<g>
		<g>
			<path class="st1" d="M14.07,48.3l0.5-0.76l-0.76-0.23l0.19-0.62l0.78,0.33l-0.05-0.82h0.76l-0.05,0.82l0.77-0.33l0.19,0.62
				l-0.74,0.23l0.5,0.76l-0.55,0.36l-0.48-0.8l-0.49,0.8L14.07,48.3z"/>
			<path class="st1" d="M19.21,48.99v4.85h-1.47v-7.56h1.14l3.94,4.96v-4.95h1.47v7.55h-1.19L19.21,48.99z"/>
			<path class="st1" d="M31.11,52.55v1.29h-5.25v-7.56h5.15v1.29h-3.69v1.82h3.18v1.19h-3.18v1.97H31.11z"/>
			<path class="st1" d="M36.61,48.25c-0.05-0.05-0.14-0.12-0.27-0.2c-0.13-0.09-0.29-0.17-0.48-0.25c-0.19-0.08-0.39-0.15-0.61-0.21
				c-0.22-0.06-0.44-0.09-0.67-0.09c-0.4,0-0.71,0.07-0.9,0.22c-0.2,0.15-0.3,0.36-0.3,0.63c0,0.16,0.04,0.29,0.11,0.39
				c0.07,0.1,0.18,0.19,0.33,0.27c0.14,0.08,0.32,0.15,0.54,0.21c0.22,0.06,0.47,0.13,0.75,0.2c0.37,0.1,0.7,0.21,1.01,0.32
				c0.3,0.11,0.56,0.26,0.77,0.43c0.21,0.17,0.37,0.37,0.48,0.61c0.11,0.24,0.17,0.53,0.17,0.88c0,0.4-0.08,0.75-0.23,1.04
				c-0.15,0.29-0.36,0.52-0.62,0.7c-0.26,0.18-0.56,0.31-0.89,0.39c-0.34,0.08-0.69,0.12-1.06,0.12c-0.57,0-1.13-0.09-1.68-0.26
				c-0.55-0.17-1.05-0.41-1.49-0.72l0.65-1.27c0.06,0.06,0.18,0.15,0.35,0.25c0.17,0.1,0.36,0.21,0.59,0.31
				c0.23,0.1,0.48,0.19,0.76,0.26c0.28,0.07,0.56,0.11,0.85,0.11c0.81,0,1.21-0.26,1.21-0.78c0-0.16-0.05-0.3-0.14-0.42
				c-0.09-0.11-0.22-0.21-0.39-0.3c-0.17-0.08-0.38-0.16-0.62-0.23c-0.24-0.07-0.51-0.15-0.81-0.23c-0.36-0.1-0.68-0.21-0.94-0.33
				c-0.27-0.12-0.49-0.26-0.67-0.42c-0.18-0.16-0.31-0.34-0.4-0.55c-0.09-0.21-0.13-0.46-0.13-0.75c0-0.38,0.07-0.72,0.21-1.02
				c0.14-0.3,0.34-0.55,0.59-0.75c0.25-0.2,0.54-0.35,0.88-0.45c0.33-0.1,0.69-0.15,1.08-0.15c0.53,0,1.02,0.08,1.47,0.25
				c0.45,0.17,0.84,0.36,1.17,0.59L36.61,48.25z"/>
			<path class="st1" d="M38.63,53.83v-7.56h3.21c0.35,0,0.67,0.07,0.96,0.22c0.29,0.15,0.55,0.34,0.76,0.57
				c0.21,0.24,0.38,0.51,0.5,0.81c0.12,0.3,0.18,0.6,0.18,0.91c0,0.32-0.06,0.63-0.17,0.93c-0.11,0.3-0.27,0.57-0.48,0.8
				s-0.45,0.42-0.75,0.56c-0.29,0.14-0.61,0.21-0.96,0.21H40.1v2.53H38.63z M40.1,50.01h1.7c0.27,0,0.5-0.11,0.68-0.33
				c0.18-0.22,0.27-0.52,0.27-0.9c0-0.19-0.03-0.36-0.08-0.52c-0.06-0.15-0.13-0.28-0.22-0.39s-0.2-0.19-0.32-0.24
				c-0.12-0.05-0.25-0.08-0.38-0.08H40.1V50.01z"/>
			<path class="st1" d="M45.27,53.83v-7.56h3.34c0.35,0,0.67,0.07,0.96,0.22c0.29,0.15,0.55,0.34,0.76,0.57s0.38,0.51,0.5,0.81
				c0.12,0.3,0.18,0.6,0.18,0.91c0,0.49-0.12,0.94-0.37,1.34c-0.24,0.4-0.58,0.69-1,0.87l1.73,2.84h-1.65l-1.54-2.53h-1.45v2.53
				H45.27z M46.74,50.01h1.84c0.13,0,0.26-0.03,0.38-0.1c0.12-0.06,0.22-0.15,0.3-0.26c0.09-0.11,0.15-0.24,0.2-0.39
				c0.05-0.15,0.07-0.31,0.07-0.48c0-0.18-0.03-0.34-0.08-0.49c-0.06-0.15-0.13-0.28-0.23-0.39c-0.1-0.11-0.21-0.2-0.33-0.26
				c-0.12-0.06-0.25-0.09-0.38-0.09h-1.78V50.01z"/>
			<path class="st1" d="M57.6,52.55v1.29h-5.25v-7.56h5.15v1.29h-3.69v1.82H57v1.19h-3.18v1.97H57.6z"/>
			<path class="st1" d="M63.09,48.25c-0.05-0.05-0.14-0.12-0.27-0.2c-0.13-0.09-0.29-0.17-0.48-0.25s-0.39-0.15-0.61-0.21
				c-0.22-0.06-0.44-0.09-0.67-0.09c-0.4,0-0.71,0.07-0.9,0.22c-0.2,0.15-0.3,0.36-0.3,0.63c0,0.16,0.04,0.29,0.11,0.39
				s0.18,0.19,0.33,0.27c0.14,0.08,0.32,0.15,0.54,0.21c0.22,0.06,0.47,0.13,0.75,0.2c0.37,0.1,0.7,0.21,1.01,0.32
				c0.3,0.11,0.56,0.26,0.77,0.43c0.21,0.17,0.37,0.37,0.48,0.61c0.11,0.24,0.17,0.53,0.17,0.88c0,0.4-0.08,0.75-0.23,1.04
				c-0.15,0.29-0.36,0.52-0.62,0.7c-0.26,0.18-0.56,0.31-0.89,0.39c-0.34,0.08-0.69,0.12-1.06,0.12c-0.57,0-1.13-0.09-1.68-0.26
				c-0.55-0.17-1.05-0.41-1.49-0.72l0.65-1.27c0.06,0.06,0.18,0.15,0.35,0.25c0.17,0.1,0.36,0.21,0.59,0.31
				c0.23,0.1,0.48,0.19,0.76,0.26c0.28,0.07,0.56,0.11,0.85,0.11c0.81,0,1.21-0.26,1.21-0.78c0-0.16-0.05-0.3-0.14-0.42
				c-0.09-0.11-0.22-0.21-0.39-0.3c-0.17-0.08-0.38-0.16-0.62-0.23c-0.24-0.07-0.51-0.15-0.81-0.23c-0.36-0.1-0.68-0.21-0.94-0.33
				c-0.27-0.12-0.49-0.26-0.67-0.42c-0.18-0.16-0.31-0.34-0.4-0.55c-0.09-0.21-0.13-0.46-0.13-0.75c0-0.38,0.07-0.72,0.21-1.02
				c0.14-0.3,0.34-0.55,0.59-0.75c0.25-0.2,0.54-0.35,0.88-0.45c0.33-0.1,0.69-0.15,1.08-0.15c0.53,0,1.02,0.08,1.47,0.25
				c0.45,0.17,0.84,0.36,1.17,0.59L63.09,48.25z"/>
			<path class="st1" d="M69.62,48.25c-0.05-0.05-0.14-0.12-0.27-0.2c-0.13-0.09-0.29-0.17-0.48-0.25c-0.19-0.08-0.39-0.15-0.61-0.21
				c-0.22-0.06-0.44-0.09-0.67-0.09c-0.4,0-0.71,0.07-0.9,0.22c-0.2,0.15-0.3,0.36-0.3,0.63c0,0.16,0.04,0.29,0.11,0.39
				s0.18,0.19,0.33,0.27c0.14,0.08,0.32,0.15,0.54,0.21c0.22,0.06,0.47,0.13,0.75,0.2c0.37,0.1,0.7,0.21,1.01,0.32
				c0.3,0.11,0.56,0.26,0.77,0.43c0.21,0.17,0.37,0.37,0.48,0.61c0.11,0.24,0.17,0.53,0.17,0.88c0,0.4-0.08,0.75-0.23,1.04
				c-0.15,0.29-0.36,0.52-0.62,0.7c-0.26,0.18-0.56,0.31-0.89,0.39c-0.34,0.08-0.69,0.12-1.06,0.12c-0.57,0-1.13-0.09-1.68-0.26
				c-0.55-0.17-1.05-0.41-1.49-0.72l0.65-1.27c0.06,0.06,0.18,0.15,0.35,0.25c0.17,0.1,0.36,0.21,0.59,0.31s0.48,0.19,0.76,0.26
				c0.28,0.07,0.56,0.11,0.85,0.11c0.81,0,1.21-0.26,1.21-0.78c0-0.16-0.05-0.3-0.14-0.42c-0.09-0.11-0.22-0.21-0.39-0.3
				c-0.17-0.08-0.38-0.16-0.62-0.23c-0.24-0.07-0.51-0.15-0.81-0.23c-0.36-0.1-0.68-0.21-0.94-0.33c-0.27-0.12-0.49-0.26-0.67-0.42
				c-0.18-0.16-0.31-0.34-0.4-0.55c-0.09-0.21-0.13-0.46-0.13-0.75c0-0.38,0.07-0.72,0.21-1.02c0.14-0.3,0.34-0.55,0.59-0.75
				c0.25-0.2,0.54-0.35,0.88-0.45c0.33-0.1,0.69-0.15,1.08-0.15c0.53,0,1.02,0.08,1.47,0.25c0.45,0.17,0.84,0.36,1.17,0.59
				L69.62,48.25z"/>
			<path class="st1" d="M74.87,53.89c-0.55,0-1.06-0.11-1.51-0.33s-0.84-0.5-1.16-0.86c-0.32-0.36-0.57-0.77-0.75-1.23
				c-0.18-0.46-0.27-0.93-0.27-1.42c0-0.5,0.09-0.99,0.28-1.45c0.19-0.46,0.45-0.87,0.78-1.22c0.33-0.36,0.72-0.64,1.18-0.85
				c0.45-0.21,0.95-0.31,1.48-0.31c0.55,0,1.04,0.11,1.5,0.34c0.45,0.22,0.84,0.52,1.16,0.88c0.32,0.36,0.57,0.77,0.75,1.24
				c0.18,0.46,0.27,0.93,0.27,1.41c0,0.5-0.09,0.99-0.28,1.44c-0.19,0.46-0.44,0.86-0.77,1.21s-0.72,0.63-1.17,0.84
				C75.9,53.78,75.4,53.89,74.87,53.89z M72.68,50.05c0,0.33,0.05,0.64,0.15,0.95c0.1,0.3,0.24,0.57,0.43,0.81
				c0.19,0.23,0.42,0.42,0.69,0.56c0.27,0.14,0.58,0.21,0.93,0.21c0.36,0,0.67-0.07,0.94-0.22c0.27-0.15,0.5-0.34,0.69-0.58
				c0.19-0.24,0.33-0.51,0.43-0.81c0.1-0.3,0.14-0.61,0.14-0.92c0-0.33-0.05-0.64-0.15-0.95c-0.1-0.3-0.25-0.57-0.44-0.81
				c-0.19-0.23-0.42-0.42-0.69-0.56c-0.27-0.14-0.58-0.21-0.92-0.21c-0.36,0-0.67,0.07-0.95,0.22s-0.51,0.34-0.69,0.57
				c-0.18,0.24-0.33,0.51-0.42,0.81C72.73,49.43,72.68,49.74,72.68,50.05z"/>
			<path class="st1" d="M82.24,51.9c-0.43,0-0.83-0.07-1.19-0.22c-0.37-0.15-0.68-0.35-0.95-0.6c-0.27-0.26-0.48-0.56-0.62-0.91
				c-0.15-0.35-0.22-0.73-0.22-1.14c0-0.41,0.07-0.79,0.22-1.14c0.15-0.35,0.36-0.65,0.62-0.91c0.27-0.25,0.58-0.45,0.95-0.6
				c0.37-0.15,0.76-0.22,1.19-0.22c0.43,0,0.83,0.07,1.2,0.22c0.37,0.15,0.69,0.35,0.96,0.6c0.27,0.26,0.48,0.56,0.63,0.91
				c0.15,0.35,0.23,0.73,0.23,1.14c0,0.41-0.07,0.8-0.23,1.14c-0.15,0.35-0.36,0.65-0.63,0.91c-0.27,0.26-0.59,0.46-0.96,0.6
				C83.07,51.83,82.67,51.9,82.24,51.9z M82.24,51.51c0.36,0,0.7-0.06,1.01-0.18c0.31-0.12,0.58-0.29,0.82-0.51
				c0.23-0.22,0.41-0.48,0.54-0.78c0.13-0.3,0.2-0.64,0.2-1c0-0.35-0.07-0.68-0.2-0.98c-0.13-0.3-0.31-0.57-0.54-0.79
				c-0.23-0.22-0.5-0.4-0.81-0.53c-0.31-0.13-0.65-0.19-1.03-0.19c-0.37,0-0.71,0.06-1.02,0.19c-0.31,0.13-0.58,0.3-0.8,0.53
				c-0.23,0.22-0.4,0.48-0.53,0.78c-0.13,0.3-0.19,0.62-0.19,0.97c0,0.35,0.06,0.68,0.19,0.98c0.13,0.3,0.3,0.57,0.53,0.79
				c0.23,0.23,0.49,0.4,0.8,0.53C81.53,51.45,81.87,51.51,82.24,51.51z M80.95,47.26h1.55c0.16,0,0.31,0.03,0.45,0.1
				s0.26,0.16,0.35,0.27c0.1,0.11,0.18,0.24,0.23,0.37c0.06,0.14,0.08,0.28,0.08,0.42c0,0.22-0.06,0.42-0.17,0.61
				c-0.12,0.19-0.27,0.32-0.46,0.4l0.82,1.32h-0.85l-0.73-1.18h-0.51v1.18h-0.76V47.26z M82.44,48.93c0.13,0,0.24-0.04,0.31-0.13
				c0.08-0.09,0.12-0.21,0.12-0.37c0-0.17-0.04-0.3-0.13-0.38c-0.09-0.08-0.19-0.12-0.31-0.12h-0.72v1H82.44z"/>
		</g>
	</g>
</g>
</svg>
